<?xml version="1.0" encoding="utf-8"?>
<!-- Generator: Adobe Illustrator 24.1.3, SVG Export Plug-In . SVG Version: 6.00 Build 0)  -->
<svg version="1.0" id="Layer_1" xmlns="http://www.w3.org/2000/svg" xmlns:xlink="http://www.w3.org/1999/xlink" x="0px" y="0px"
	 viewBox="0 0 750 630.5" style="enable-background:new 0 0 750 630.5;" xml:space="preserve">
<style type="text/css">
	.st0{fill:none;}
	.st1{fill:#239CEC;}
	.st2{fill:#FFFFFF;}
</style>
<rect id="svgEditorBackground" class="st0" width="750" height="630.5"/>
<g>
	<path class="st1" d="M664.4,214c-6.7-16.7-20.5-20.9-21.8-22c-11.7-10.3-2.5-21.2-19.9-30.7c-18.3-9.9-72-37-114.2-31.4
		c-9.2,1.2-27.8,17.6-41.2,17.6c-21.9,0-92.2,0-92.2,0s-70.3,0-92.2,0c-13.4,0-32-16.4-41.2-17.6c-42.2-5.6-95.9,21.5-114.2,31.4
		c-17.5,9.5-8.2,20.4-19.9,30.7c-1.3,1.1-15.1,5.3-21.8,22C22.9,370-1.7,469.1,0.1,529.1C3,623.5,76.7,630.5,76.7,630.5
		c37-8.6,111.6-129.1,168.5-129.1c31.2,0,129.8,0,129.8,0s98.6,0,129.8,0c57,0,131.5,120.5,168.5,129.1c0,0,73.7-6.9,76.6-101.3
		C751.8,469.1,727.1,370,664.4,214L664.4,214z"/>
	<path class="st1" d="M548.4,114.9l50.4,6.8C586.7,5,555.8,10.8,549.1,5.5c-0.4-0.3-0.8-0.6-1.2-0.9c-6.4-4.5-13.6-4.9-25.8-4.4
		c-10.8,0.4-12.1,11.4-12.2,15.2v1.2c0,0,2.9,40.7,0,93.1C519.6,111.9,547.6,114.9,548.4,114.9z"/>
	<path class="st1" d="M201.7,114.9c0,0,28.6-3,38.5-5.3c-2.9-52.4,0-93.1,0-93.1v-1.2c-0.1-3.8-1.4-14.8-12.2-15.2
		c-12.2-0.4-19.4-0.1-25.8,4.4c-0.4,0.3-0.8,0.6-1.2,0.9c-6.8,5.3-37.6-0.5-49.7,116.3L201.7,114.9L201.7,114.9L201.7,114.9z"/>
</g>
<g>
	<path class="st2" d="M116.5,324v-28.8H146c8.3,0,12.4,2.1,12.4,6.3v16.2c0,0.3-0.1,0.6-0.2,1c-0.9,3.5-4.8,5.3-11.8,5.3H116.5z
		 M128.9,317.8h12.7c1.4,0,2.3-0.1,2.7-0.2c0.9-0.3,1.4-0.9,1.5-1.9c0.1-0.1,0.1-0.2,0.1-0.4v-12.6c-0.4-0.9-1.8-1.4-4.4-1.4h-12.6
		V317.8z"/>
	<path class="st2" d="M165.9,324v-28.8h12.4V324H165.9z"/>
	<path class="st2" d="M185.2,300.9c0-0.5,0.1-1,0.3-1.4c1.4-2.8,5.3-4.2,11.4-4.2h25.2v6.2l-21.8,0.1c-1.8,0.1-2.7,0.5-2.7,1.4v1.9
		c0,0.2,0,0.3,0.1,0.4c0.3,0.7,1.3,1.2,3.1,1.3c0.2,0,0.4,0,0.8,0h9c2.7,0,5,0.3,7,1c3,1,4.6,2.5,4.6,4.6v5.8c0,2.3-1.6,4-4.7,5
		c-2.1,0.7-4.7,1-7.7,1h-24.5v-6.2h21.6c1.9-0.3,2.9-0.9,2.9-1.7V314c0-0.8-0.9-1.3-2.6-1.4h-10.3c-4.2,0-7.4-0.9-9.7-2.6
		c-1.3-1-1.9-2-1.9-3.1V300.9z"/>
	<path class="st2" d="M229.2,317.6v-15.8c0-2.5,1-4.2,2.9-5.2c1.9-0.9,5.5-1.4,10.6-1.4h24.2v6.2h-22.4c-1.6,0.1-2.6,0.5-2.9,1.3
		v12.6c0,1.1,0.4,1.8,1.1,2.2c0.4,0.2,1.3,0.3,2.6,0.3h1h20.6v6.2h-26c-1.4,0-2.8-0.2-4.3-0.5C231.6,322.6,229.2,320.6,229.2,317.6z
		"/>
	<path class="st2" d="M273.2,301.4c0-0.5,0.1-1,0.3-1.5c1.3-3.1,5.6-4.6,12.7-4.6h14.6c8.6,0,12.9,2.1,12.9,6.2v16.4
		c0,4.2-4.3,6.2-13,6.2h-14.6c-3.9,0-6.9-0.4-8.8-1.1s-3.2-1.9-3.8-3.6c-0.2-0.5-0.3-1-0.3-1.4L273.2,301.4z M285.6,303.4l0.1,12.4
		c0,1.3,1.4,2,4.1,2h7.6c2.7,0,4.1-0.6,4.1-1.8v-12.6c0-1.3-1.4-2-4.1-2h-7.6C286.9,301.4,285.6,302,285.6,303.4z"/>
	<path class="st2" d="M321.2,324v-23.1c0-1.8,1-3.2,2.9-4.3c1.9-1.1,4.4-1.7,7.3-1.7c1.3,0,2.7,0.1,4.1,0.3c3.4,0.6,5.7,2.1,6.9,4.4
		l8.7,16.6v-21h11.8V319c0,1.5-1,2.7-2.9,3.8c-1.9,1-4.3,1.5-7.2,1.6c-5.5,0.1-9.2-1.5-11-4.9l-8.8-16.6v21H321.2z"/>
	<path class="st2" d="M370.4,324v-23.1c0-1.8,1-3.2,2.9-4.3c1.9-1.1,4.4-1.7,7.3-1.7c1.3,0,2.7,0.1,4.1,0.3c3.4,0.6,5.7,2.1,6.9,4.4
		l8.7,16.6v-21h11.8V319c0,1.5-1,2.7-2.9,3.8c-1.9,1-4.3,1.5-7.2,1.6c-5.5,0.1-9.2-1.5-11-4.9l-8.8-16.6v21H370.4z"/>
	<path class="st2" d="M419.6,318v-16.6c0-0.4,0.1-0.8,0.2-1.3c1.1-3.3,5-5,11.8-5h25.6v6.2h-22.3c-0.2,0.1-0.4,0.1-0.8,0.2
		c-1.4,0.3-2.1,0.8-2.1,1.7v3.2h25.2v6.2H432v3.2c0,1.2,1.1,1.8,3.2,1.9h22v6.2h-23.8C424.2,324,419.6,322,419.6,318z"/>
	<path class="st2" d="M464.2,317.6v-15.8c0-2.5,1-4.2,2.9-5.2c1.9-0.9,5.5-1.4,10.6-1.4h24.2v6.2h-22.4c-1.6,0.1-2.6,0.5-2.9,1.3
		v12.6c0,1.1,0.4,1.8,1.1,2.2c0.4,0.2,1.3,0.3,2.6,0.3h1h20.6v6.2h-26c-1.4,0-2.8-0.2-4.3-0.5C466.7,322.6,464.2,320.6,464.2,317.6z
		"/>
	<path class="st2" d="M505.3,301.4v-6.2h37.1v6.2H530V324h-12.4v-22.6H505.3z"/>
	<path class="st2" d="M547.1,318v-16.6c0-0.4,0.1-0.8,0.2-1.3c1.1-3.3,5-5,11.8-5h25.6v6.2h-22.3c-0.2,0.1-0.4,0.1-0.8,0.2
		c-1.4,0.3-2.1,0.8-2.1,1.7v3.2h25.2v6.2h-25.2v3.2c0,1.2,1.1,1.8,3.2,1.9h22v6.2h-23.8C551.7,324,547.1,322,547.1,318z"/>
	<path class="st2" d="M591.6,324v-28.8h29.4c8.3,0,12.4,2.1,12.4,6.3v16.2c0,0.3-0.1,0.6-0.2,1c-0.9,3.5-4.8,5.3-11.8,5.3H591.6z
		 M604,317.8h12.7c1.4,0,2.3-0.1,2.7-0.2c0.9-0.3,1.4-0.9,1.5-1.9c0.1-0.1,0.1-0.2,0.1-0.4v-12.6c-0.4-0.9-1.8-1.4-4.4-1.4H604
		V317.8z"/>
</g>
</svg>
